<svg width="394" height="480" viewBox="0 0 394 480" fill="none" xmlns="http://www.w3.org/2000/svg">
<path d="M15.1605 75L75.1605 15H317.161L377.161 75V320L271.661 465H130.661L15.1605 320V75Z" stroke="#0F65E7" stroke-width="30"/>
<path d="M199.301 459.452C195.784 459.452 194.104 445.939 193.43 443.108C192.064 437.372 191.267 431.704 191.267 425.803C191.267 415.342 191.267 404.881 191.267 394.42C191.267 391.696 191.267 388.972 191.267 386.249C191.267 383.227 192.503 380.418 192.503 377.321C192.503 369.971 195.84 364.441 197.756 357.544C198.376 355.31 200.004 351.817 201.155 349.853C201.988 348.433 203.628 344.942 204.863 344.016C206.634 342.688 207.336 339.542 209.464 338.316C211.574 337.102 213.6 335.672 215.37 333.99C219.505 330.062 225.09 327.717 228.624 323.174C230.612 320.618 229.585 315.133 229.585 312.049C229.585 307.519 223.348 302.468 219.696 300.616C214.813 298.139 210.007 295.349 207.816 289.972C206.783 287.435 205.033 285.467 204.211 282.727C203.582 280.63 202.332 277.985 201.121 276.169C197.984 271.463 194.818 267.087 191.198 262.95C187.957 259.246 184.246 255.635 181.756 251.207C179.171 246.612 176.142 242.375 173.687 237.816C171.595 233.932 170.253 230.966 170.253 226.314C170.253 220.119 176.345 219.985 180.76 217.661C186.296 214.748 192.382 212.297 198.065 209.455C200.282 208.347 202.453 207.276 204.589 206.056C206.053 205.219 207.36 203.71 208.881 203.034C215.862 199.931 222.992 187.356 213.035 183.188C203.615 179.245 192.762 172.712 187.181 164.029C185.661 161.665 184.727 160.463 183.987 157.505C183.322 154.842 183.099 152.115 182.477 149.471C181.68 146.086 181.008 139.731 182.133 136.355C186.044 124.622 199.434 113.166 194.94 99.6845C191.809 90.2901 190.34 78.3409 181.515 72.5595C179.379 71.1599 174.264 69.6624 172.863 67.6152C171.516 65.6465 170.353 63.5703 169.017 61.6408C167.494 59.4401 167.163 55.466 167.163 52.7822" stroke="#0F65E7" stroke-width="30" stroke-linecap="round"/>
<path d="M275.32 249.937C273.885 249.757 274.802 215.187 273.466 210.176C272.291 205.771 278.387 207.202 281.638 206.193C287.517 204.369 293.944 204.191 299.732 202.313C310.042 198.97 320.511 195.774 330.051 190.571C332.07 189.469 336.414 187.803 337.605 185.661C340.101 181.166 331.143 174.866 329.433 171.446C325.001 162.582 326.261 152.154 323.046 143.153C322.407 141.363 321.055 138.343 321.055 136.492C321.055 132.841 325.038 130.825 327.373 128.664C330.216 126.031 334.902 124.471 338.669 123.891C343.724 123.113 348.591 122.651 353.674 121.522C361.951 119.682 370.442 118.463 378.532 116.44" stroke="#0F65E7" stroke-width="30" stroke-linecap="round"/>
<path d="M133.171 290.727C133.171 287.672 131.935 285.692 131.935 282.349C131.935 280.203 132.693 276.27 131.626 274.349C130.324 272.005 131.317 267.276 131.317 264.632C131.317 260.638 129.471 256.761 128.227 253.027" stroke="#0F65E7" stroke-width="30" stroke-linecap="round"/>
<path d="M128.227 251.173C127.706 248.049 126.373 246.086 126.373 242.829C126.373 239.912 125.24 237.424 125.136 234.623C125.011 231.231 123.9 228.711 123.9 225.215C123.9 221.804 123.629 218.029 122.527 214.846C120.816 209.902 117.102 206.652 117.102 201.112C117.102 197.245 101.501 201.687 99.7969 202.966" stroke="#0F65E7" stroke-width="30" stroke-linecap="round"/>
<path d="M98.5609 203.584C94.7308 205.611 92.1846 209.335 87.7108 210.519C82.4389 211.915 77.5731 214.379 72.4659 216.082C70.1981 216.838 67.9271 217.798 65.4958 217.798C63.914 217.798 64.5687 214.612 64.5687 213.472C64.5687 211.159 64.3278 209.211 63.985 206.983C63.5125 203.911 62.0966 200.917 62.0966 197.712C62.0966 194.251 63.3595 187.376 61.1695 184.699C58.7151 181.699 55.1027 177.651 53.5814 174.055C52.6301 171.807 49.2195 171.306 47.916 169.351C47.4389 168.635 46.0956 168.427 45.4095 167.6C44.2448 166.196 43.207 164.775 41.8386 163.548C39.4848 161.438 33.8829 158.995 30.9199 157.917C25.5881 155.979 20.5466 153.999 16.3617 149.814" stroke="#0F65E7" stroke-width="30" stroke-linecap="round"/>
</svg>
