<svg width="444" height="530" viewBox="0 0 444 530" fill="none" xmlns="http://www.w3.org/2000/svg">
<path d="M40.1605 100L100.161 40H342.161L402.161 100V345L296.661 490H155.661L40.1605 345V100Z" stroke="#0F65E7" stroke-width="30"/>
<path d="M224.301 484.452C220.784 484.452 219.104 470.939 218.43 468.108C217.064 462.372 216.267 456.704 216.267 450.803C216.267 440.342 216.267 429.881 216.267 419.42C216.267 416.696 216.267 413.972 216.267 411.248C216.267 408.227 217.503 405.418 217.503 402.321C217.503 394.971 220.84 389.441 222.756 382.544C223.376 380.31 225.004 376.817 226.155 374.853C226.988 373.432 228.628 369.942 229.863 369.016C231.634 367.688 232.336 364.542 234.464 363.316C236.574 362.101 238.6 360.672 240.37 358.99C244.505 355.062 250.09 352.717 253.624 348.174C255.612 345.618 254.585 340.133 254.585 337.049C254.585 332.519 248.348 327.468 244.696 325.616C239.813 323.138 235.007 320.349 232.816 314.972C231.783 312.435 230.033 310.466 229.211 307.727C228.582 305.63 227.332 302.985 226.121 301.169C222.984 296.463 219.818 292.087 216.198 287.95C212.957 284.246 209.246 280.635 206.756 276.207C204.171 271.612 201.142 267.375 198.687 262.816C196.595 258.932 195.253 255.966 195.253 251.314C195.253 245.119 201.345 244.985 205.76 242.661C211.296 239.748 217.382 237.296 223.065 234.455C225.282 233.346 227.453 232.276 229.589 231.056C231.053 230.219 232.36 228.71 233.881 228.034C240.862 224.931 247.992 212.356 238.035 208.188C228.615 204.245 217.762 197.712 212.181 189.029C210.661 186.665 209.727 185.463 208.987 182.505C208.322 179.842 208.099 177.115 207.477 174.471C206.68 171.086 206.008 164.731 207.133 161.355C211.044 149.621 224.434 138.165 219.94 124.684C216.809 115.29 215.34 103.341 206.515 97.5593C204.379 96.1598 199.264 94.6623 197.863 92.615C196.516 90.6464 195.353 88.5701 194.017 86.6407C192.494 84.44 192.163 80.4658 192.163 77.7821" stroke="#0F65E7" stroke-width="30" stroke-linecap="round"/>
<path d="M300.32 274.937C298.885 274.757 299.802 240.187 298.466 235.176C297.291 230.771 303.387 232.202 306.638 231.193C312.517 229.369 318.944 229.191 324.732 227.313C335.042 223.97 345.511 220.774 355.051 215.571C357.07 214.469 361.414 212.803 362.605 210.661C365.101 206.166 356.143 199.866 354.433 196.446C350.001 187.582 351.261 177.154 348.046 168.153C347.407 166.363 346.055 163.343 346.055 161.492C346.055 157.841 350.038 155.825 352.373 153.664C355.216 151.031 359.902 149.471 363.669 148.891C368.724 148.113 373.591 147.651 378.674 146.522C386.951 144.682 395.442 143.463 403.532 141.44" stroke="#0F65E7" stroke-width="30" stroke-linecap="round"/>
<path d="M158.171 315.727C158.171 312.672 156.935 310.692 156.935 307.349C156.935 305.203 157.693 301.27 156.626 299.349C155.324 297.005 156.317 292.276 156.317 289.632C156.317 285.638 154.471 281.761 153.227 278.027" stroke="#0F65E7" stroke-width="30" stroke-linecap="round"/>
<path d="M153.227 276.173C152.706 273.049 151.373 271.086 151.373 267.829C151.373 264.912 150.24 262.424 150.136 259.623C150.011 256.231 148.9 253.71 148.9 250.215C148.9 246.804 148.629 243.029 147.527 239.846C145.816 234.902 142.102 231.651 142.102 226.111C142.102 222.244 126.501 226.687 124.797 227.966" stroke="#0F65E7" stroke-width="30" stroke-linecap="round"/>
<path d="M123.561 228.584C119.731 230.611 117.185 234.335 112.711 235.519C107.439 236.915 102.573 239.379 97.4659 241.082C95.1981 241.838 92.9271 242.798 90.4958 242.798C88.914 242.798 89.5687 239.612 89.5687 238.472C89.5687 236.159 89.3278 234.211 88.985 231.983C88.5125 228.911 87.0966 225.917 87.0966 222.712C87.0966 219.251 88.3595 212.376 86.1695 209.699C83.7151 206.699 80.1027 202.651 78.5814 199.055C77.6301 196.807 74.2195 196.306 72.916 194.351C72.4389 193.635 71.0956 193.427 70.4095 192.6C69.2448 191.196 68.207 189.775 66.8386 188.548C64.4848 186.438 58.8829 183.995 55.9199 182.917C50.5881 180.979 45.5466 178.999 41.3617 174.814" stroke="#0F65E7" stroke-width="30" stroke-linecap="round"/>
<g filter="url(#filter0_f_44_46)">
<path d="M40 100L100 40H342L402 100V345L296.5 490H155.5L40 345V100Z" stroke="#0F65E7" stroke-width="30"/>
<path d="M224.301 484.452C220.784 484.452 219.104 470.939 218.43 468.108C217.064 462.372 216.267 456.704 216.267 450.803C216.267 440.342 216.267 429.881 216.267 419.42C216.267 416.696 216.267 413.972 216.267 411.248C216.267 408.227 217.503 405.418 217.503 402.321C217.503 394.971 220.84 389.441 222.756 382.544C223.376 380.31 225.004 376.817 226.155 374.853C226.988 373.432 228.628 369.942 229.863 369.016C231.634 367.688 232.336 364.542 234.464 363.316C236.574 362.101 238.6 360.672 240.37 358.99C244.505 355.062 250.09 352.717 253.624 348.174C255.612 345.618 254.585 340.133 254.585 337.049C254.585 332.519 248.348 327.468 244.696 325.616C239.813 323.138 235.007 320.349 232.816 314.972C231.783 312.435 230.033 310.466 229.211 307.727C228.582 305.63 227.332 302.985 226.121 301.169C222.984 296.463 219.818 292.087 216.198 287.95C212.957 284.246 209.246 280.635 206.756 276.207C204.171 271.612 201.142 267.375 198.687 262.816C196.595 258.932 195.253 255.966 195.253 251.314C195.253 245.119 201.345 244.985 205.76 242.661C211.296 239.748 217.382 237.296 223.065 234.455C225.282 233.346 227.453 232.276 229.589 231.056C231.053 230.219 232.36 228.71 233.881 228.034C240.862 224.931 247.992 212.356 238.035 208.188C228.615 204.245 217.762 197.712 212.181 189.029C210.661 186.665 209.727 185.463 208.987 182.505C208.322 179.842 208.099 177.115 207.477 174.471C206.68 171.086 206.008 164.731 207.133 161.355C211.044 149.621 224.434 138.165 219.94 124.684C216.809 115.29 215.34 103.341 206.515 97.5593C204.379 96.1598 199.264 94.6623 197.863 92.615C196.516 90.6464 195.353 88.5701 194.017 86.6407C192.494 84.44 192.163 80.4658 192.163 77.7821" stroke="#0F65E7" stroke-width="30" stroke-linecap="round"/>
<path d="M300.32 274.936C298.885 274.757 299.802 240.187 298.466 235.176C297.291 230.77 303.387 232.202 306.638 231.193C312.517 229.368 318.944 229.19 324.732 227.313C335.042 223.969 345.511 220.774 355.051 215.57C357.07 214.469 361.414 212.803 362.605 210.66C365.101 206.166 356.143 199.866 354.433 196.446C350.001 187.582 351.261 177.154 348.046 168.153C347.407 166.363 346.055 163.343 346.055 161.492C346.055 157.841 350.038 155.825 352.373 153.663C355.216 151.031 359.902 149.47 363.669 148.891C368.724 148.113 373.591 147.651 378.674 146.522C386.951 144.682 395.442 143.463 403.532 141.44" stroke="#0F65E7" stroke-width="30" stroke-linecap="round"/>
<path d="M158.171 315.727C158.171 312.672 156.935 310.692 156.935 307.349C156.935 305.203 157.693 301.27 156.626 299.349C155.324 297.005 156.317 292.276 156.317 289.632C156.317 285.638 154.471 281.761 153.227 278.027" stroke="#0F65E7" stroke-width="30" stroke-linecap="round"/>
<path d="M153.227 276.173C152.706 273.049 151.373 271.086 151.373 267.829C151.373 264.912 150.24 262.424 150.136 259.623C150.011 256.231 148.9 253.71 148.9 250.215C148.9 246.804 148.629 243.029 147.527 239.846C145.816 234.902 142.102 231.651 142.102 226.111C142.102 222.244 126.501 226.687 124.797 227.966" stroke="#0F65E7" stroke-width="30" stroke-linecap="round"/>
<path d="M123.561 228.584C119.731 230.611 117.185 234.335 112.711 235.519C107.439 236.915 102.573 239.379 97.4659 241.082C95.1981 241.838 92.9271 242.798 90.4958 242.798C88.914 242.798 89.5687 239.612 89.5687 238.472C89.5687 236.159 89.3278 234.211 88.985 231.983C88.5125 228.911 87.0966 225.917 87.0966 222.712C87.0966 219.251 88.3595 212.376 86.1695 209.699C83.7151 206.699 80.1027 202.651 78.5814 199.055C77.6301 196.807 74.2195 196.306 72.916 194.351C72.4389 193.635 71.0956 193.427 70.4095 192.6C69.2448 191.196 68.207 189.775 66.8386 188.548C64.4848 186.438 58.8829 183.995 55.9199 182.917C50.5881 180.979 45.5466 178.999 41.3617 174.814" stroke="#0F65E7" stroke-width="30" stroke-linecap="round"/>
</g>
<defs>
<filter id="filter0_f_44_46" x="0" y="0" width="443.536" height="530" filterUnits="userSpaceOnUse" color-interpolation-filters="sRGB">
<feFlood flood-opacity="0" result="BackgroundImageFix"/>
<feBlend mode="normal" in="SourceGraphic" in2="BackgroundImageFix" result="shape"/>
<feGaussianBlur stdDeviation="12.5" result="effect1_foregroundBlur_44_46"/>
</filter>
</defs>
</svg>
